<?xml version="1.0" encoding="UTF-8"?>
<!DOCTYPE svg  PUBLIC '-//W3C//DTD SVG 1.1//EN'  'http://www.w3.org/Graphics/SVG/1.1/DTD/svg11.dtd'>
<svg width="20px" height="17px" enable-background="new 0 0 33.88 33.88" fill="#CBCACF" version="1.1" viewBox="0 0 33.88 33.88" xml:space="preserve" xmlns="http://www.w3.org/2000/svg">
	<path d="m30.414 10.031c0.014 0.297 0.021 0.595 0.021 0.897 0 9.187-6.992 19.779-19.779 19.779-3.928 0-7.58-1.149-10.657-3.123 0.546 0.063 1.099 0.095 1.658 0.095 3.26 0 6.254-1.107 8.632-2.974-3.039-0.058-5.607-2.065-6.491-4.828 0.424 0.082 0.858 0.125 1.308 0.125 0.635 0 1.248-0.084 1.83-0.244-3.177-0.639-5.576-3.448-5.576-6.815v-0.087c0.939 0.521 2.01 0.833 3.15 0.869-1.864-1.245-3.091-3.375-3.091-5.787 0-1.274 0.343-2.467 0.94-3.495 3.427 4.206 8.552 6.973 14.327 7.263-0.117-0.509-0.18-1.038-0.18-1.584 0-3.838 3.112-6.949 6.953-6.949 1.998 0 3.805 0.844 5.07 2.192 1.582-0.311 3.072-0.89 4.416-1.686-0.521 1.624-1.621 2.986-3.057 3.844 1.406-0.166 2.746-0.54 3.991-1.092-0.93 1.395-2.108 2.619-3.465 3.6z"/>
</svg>